<svg width="779" height="692" viewBox="0 0 779 692" fill="none" xmlns="http://www.w3.org/2000/svg">
<path fill-rule="evenodd" clip-rule="evenodd" d="M232.443 0L232.673 0.391141L338.475 180.054L580.1 108.166L580.385 108.081L580.596 108.291L736.596 264.291L735.889 264.998L580.099 109.209L338.385 181.124L338.01 181.236L337.812 180.899L232.042 1.28972L0.453469 109.098L0.031439 108.192L232.031 0.19157L232.443 0ZM218.444 49.9928L218.676 50.3954L332.461 248.023L570.06 155.179L570.37 155.058L570.601 155.297L738.601 328.297L737.884 328.993L570.115 156.231L332.424 249.111L332.024 249.267L331.809 248.894L218.041 51.2969L0.459424 156.095L0.0254838 155.194L218.025 50.1944L218.444 49.9928ZM202.673 92.39L202.425 91.972L202 92.2076L0 204.208L0.484908 205.082L202.06 93.3177L329.812 308.9L330.042 309.287L330.451 309.099L556.122 205.25L737.876 400.985L738.609 400.305L556.609 204.305L556.362 204.039L556.033 204.191L330.443 308.002L202.673 92.39ZM545.416 409.957L545.673 410.39L673.401 625.932L763.961 564.232L764.524 565.058L673.524 627.058L673.084 627.358L672.812 626.9L545.069 411.332L365.5 519.074L364.985 518.216L544.985 410.216L545.416 409.957ZM534.676 464.396L534.428 463.964L533.995 464.21L364.996 560.21L365.489 561.08L534.057 465.325L663.809 690.894L664.085 691.374L664.534 691.051L778.534 609.051L777.951 608.239L664.4 689.916L534.676 464.396Z" fill="#D84727" fill-opacity="0.61"/>
</svg>
