<svg width="694" height="320" viewBox="0 0 694 320" fill="none" xmlns="http://www.w3.org/2000/svg">
<path fill-rule="evenodd" clip-rule="evenodd" d="M214.095 0.663025L214.383 1.00896L359.118 174.861L574.186 54.3487L574.466 54.1916L574.725 54.3814L752.767 184.663L752.176 185.47L574.394 55.3782L359.244 175.936L358.882 176.139L358.616 175.82L213.903 1.99471L1.54365 143.986L0.987821 143.154L213.721 0.913218L214.095 0.663025ZM198.522 96.1367L198.829 96.5286L345.123 283.346L565.153 152.897L565.449 152.722L565.718 152.935L775.576 318.765L774.956 319.549L565.368 153.933L345.255 284.43L344.877 284.654L344.606 284.308L198.349 97.5371L16.2676 238.834L15.6545 238.044L198.129 96.4419L198.522 96.1367ZM208.208 52.5698L207.917 52.2075L207.534 52.4707L8.17694 189.604L8.74368 190.428L207.718 53.5579L350.394 231.411L350.663 231.747L351.035 231.531L571.706 103.361L763.944 248.405L764.546 247.607L572.044 102.363L571.778 102.163L571.491 102.329L350.905 230.45L208.208 52.5698Z" fill="#D84727" fill-opacity="0.4"/>
</svg>
