<svg width="442" height="353" viewBox="0 0 442 353" fill="none" xmlns="http://www.w3.org/2000/svg">
<path fill-rule="evenodd" clip-rule="evenodd" d="M158.932 0L159.19 0.43531L286.921 215.982L433.483 118.274L434.037 119.106L287.037 217.106L286.599 217.399L286.33 216.945L158.588 1.38042L0.520032 97.6173L0 96.7631L158.5 0.263138L158.932 0ZM147.944 54.0081L148.193 54.4409L277.913 279.954L440.962 158.789L441.558 159.592L278.058 281.092L277.607 281.427L277.327 280.94L147.576 55.3723L1.50872 139.124L1.01131 138.256L147.511 54.2565L147.944 54.0081ZM134.205 102.463L133.965 101.993L133.509 102.258L1.00879 179.258L1.51124 180.123L133.555 103.388L260.315 351.917L260.588 352.453L261.064 352.087L441.564 213.587L440.956 212.794L260.932 350.928L134.205 102.463Z" fill="#D84727" fill-opacity="0.2"/>
</svg>
